<?xml version="1.0" encoding="UTF-8" standalone="no"?>
<!DOCTYPE svg PUBLIC "-//W3C//DTD SVG 1.1//EN" "http://www.w3.org/Graphics/SVG/1.1/DTD/svg11.dtd">
<svg width="100%" height="100%" viewBox="0 0 3345 3926" version="1.1" xmlns="http://www.w3.org/2000/svg" xmlns:xlink="http://www.w3.org/1999/xlink" xml:space="preserve" xmlns:serif="http://www.serif.com/" style="fill-rule:evenodd;clip-rule:evenodd;stroke-linejoin:round;stroke-miterlimit:2;">
    <g transform="matrix(4.4351,0,0,4.4351,-1724.45,-1288.34)">
        <g transform="matrix(0.748168,0,0,0.748168,-1680.21,-1524.29)">
            <g transform="matrix(1.1155,0,0,0.749322,814.441,1425.74)">
                <ellipse cx="2219.06" cy="2283.16" rx="428.763" ry="79.063" style="fill:url(#_Linear1);"/>
            </g>
            <g transform="matrix(1,0,0,1,1267.53,1017.93)">
                <path d="M1755.86,1825.9C1755.86,1825.9 1657.47,1974.02 1550.37,1935.73C1516.18,1923.5 1495.9,1880.83 1498.1,1813.22C1498.1,1813.22 1596.94,1961.85 1753.5,1777.53C1772.8,1754.82 1811.39,1707.9 1847.05,1683.03C1897.31,1647.98 1948.64,1628.39 1959.44,1623.12C1975.77,1634.39 1996.8,1646.84 2031.99,1660.28C2096.54,1684.93 2281.94,1699.02 2409.82,1766.53C2435.72,1780.2 2456.4,1791.98 2479.47,1808.67L2449.27,1821.33C2449.27,1821.33 2287.15,1753.87 2119.97,1775.97C2053.45,1784.77 1986.13,1813.03 1956.28,1835.65C1918.9,1863.97 1900.37,1907.92 1852.3,1960.31C1794.32,2023.5 1748.73,2020.91 1692.87,2053.07C1663.64,2069.9 1645.48,2112.07 1645.48,2112.07L1605.91,2113.62L1658.6,2002.57C1721.43,1982.58 1759.36,1923.46 1759.36,1854.04C1759.36,1846.23 1755.86,1825.9 1755.86,1825.9ZM2062.96,1584.82C2081.01,1605.72 2130.66,1640.55 2283.56,1676.33C2280.53,1690.81 2286.54,1701.19 2297.79,1709.92C2275.08,1704.06 2194.1,1683.03 2140.27,1667.57C2091.63,1653.59 2041.2,1636.38 2013.33,1599.7C2029.75,1594.05 2046.25,1589.22 2062.96,1584.82ZM2164.45,1558.52C2180.97,1580.66 2218.75,1618.32 2295.15,1651.95C2292.14,1655.59 2289.46,1659.98 2287.19,1665.27C2259.53,1656.73 2129.84,1616.38 2105.29,1572.93C2112.29,1571.34 2119.34,1569.77 2126.45,1568.19C2141.23,1564.92 2153.73,1561.73 2164.45,1558.52ZM2198.49,1546.3C2245.47,1523.25 2246.67,1479.08 2306.58,1428.12C2306.58,1428.12 2341.75,1402.79 2378.32,1408.55C2378.32,1408.55 2348.47,1420.91 2341.91,1466.44C2341.91,1466.44 2393.48,1466.4 2408.99,1484.17C2433.7,1512.49 2420,1518.9 2452.86,1526.21C2485.72,1533.52 2506.01,1537.71 2506.01,1537.71C2506.01,1537.71 2488.24,1596.68 2427.82,1593.31C2408.55,1592.23 2386.15,1586.63 2364.87,1592.86C2335.97,1601.31 2311.75,1625.21 2301.66,1642.9C2275.94,1628.34 2226.95,1595.97 2198.49,1546.3Z" style="fill:url(#_Linear2);"/>
                <clipPath id="_clip3">
                    <path d="M1755.86,1825.9C1755.86,1825.9 1657.47,1974.02 1550.37,1935.73C1516.18,1923.5 1495.9,1880.83 1498.1,1813.22C1498.1,1813.22 1596.94,1961.85 1753.5,1777.53C1772.8,1754.82 1811.39,1707.9 1847.05,1683.03C1897.31,1647.98 1948.64,1628.39 1959.44,1623.12C1975.77,1634.39 1996.8,1646.84 2031.99,1660.28C2096.54,1684.93 2281.94,1699.02 2409.82,1766.53C2435.72,1780.2 2456.4,1791.98 2479.47,1808.67L2449.27,1821.33C2449.27,1821.33 2287.15,1753.87 2119.97,1775.97C2053.45,1784.77 1986.13,1813.03 1956.28,1835.65C1918.9,1863.97 1900.37,1907.92 1852.3,1960.31C1794.32,2023.5 1748.73,2020.91 1692.87,2053.07C1663.64,2069.9 1645.48,2112.07 1645.48,2112.07L1605.91,2113.62L1658.6,2002.57C1721.43,1982.58 1759.36,1923.46 1759.36,1854.04C1759.36,1846.23 1755.86,1825.9 1755.86,1825.9ZM2062.96,1584.82C2081.01,1605.72 2130.66,1640.55 2283.56,1676.33C2280.53,1690.81 2286.54,1701.19 2297.79,1709.92C2275.08,1704.06 2194.1,1683.03 2140.27,1667.57C2091.63,1653.59 2041.2,1636.38 2013.33,1599.7C2029.75,1594.05 2046.25,1589.22 2062.96,1584.82ZM2164.45,1558.52C2180.97,1580.66 2218.75,1618.32 2295.15,1651.95C2292.14,1655.59 2289.46,1659.98 2287.19,1665.27C2259.53,1656.73 2129.84,1616.38 2105.29,1572.93C2112.29,1571.34 2119.34,1569.77 2126.45,1568.19C2141.23,1564.92 2153.73,1561.73 2164.45,1558.52ZM2198.49,1546.3C2245.47,1523.25 2246.67,1479.08 2306.58,1428.12C2306.58,1428.12 2341.75,1402.79 2378.32,1408.55C2378.32,1408.55 2348.47,1420.91 2341.91,1466.44C2341.91,1466.44 2393.48,1466.4 2408.99,1484.17C2433.7,1512.49 2420,1518.9 2452.86,1526.21C2485.72,1533.52 2506.01,1537.71 2506.01,1537.71C2506.01,1537.71 2488.24,1596.68 2427.82,1593.31C2408.55,1592.23 2386.15,1586.63 2364.87,1592.86C2335.97,1601.31 2311.75,1625.21 2301.66,1642.9C2275.94,1628.34 2226.95,1595.97 2198.49,1546.3Z"/>
                </clipPath>
                <g clip-path="url(#_clip3)">
                    <g transform="matrix(1,0,0,1,-1267.53,-1017.93)">
                        <path d="M3662.33,2424.17C3662.33,2424.17 3589.73,2428.84 3550.63,2508.14C3511.53,2587.44 3468.96,2591.18 3319.52,2642.85C3170.08,2694.53 3096.99,2770.78 3068.73,2870.02C3040.48,2969.25 2999.5,3020.18 2903.58,3027.7C2807.67,3035.22 2577.86,2963.77 2719.93,2760.86C2861.99,2557.95 3548.69,2362.12 3548.69,2362.12L3662.33,2424.17Z" style="fill:url(#_Linear4);"/>
                    </g>
                    <g transform="matrix(1,0,0,1,-1289.67,-1030.33)">
                        <path d="M2995.7,3061.06C3036.77,3035.46 3100.11,3027.88 3172.87,2915.1C3190.44,2887.88 3219.58,2850.09 3248.26,2830.74C3284.14,2806.54 3341.67,2772.79 3436.74,2767.72C3537.11,2762.37 3671.42,2802.33 3759.39,2856.37L2934.47,3145.31C2934.47,3145.31 2944.95,3092.68 2995.7,3061.06Z" style="fill:url(#_Linear5);"/>
                    </g>
                </g>
            </g>
        </g>
        <g transform="matrix(5.49426,0,0,5.49426,-2196.73,-1146.62)">
            <g transform="matrix(1,0,0,1,495.399,394.911)">
                <path d="M0,9.201C1.267,8.001 1.899,6.451 1.899,4.551C1.899,2.719 1.267,1.219 0,0.051C-1.268,-1.115 -2.834,-1.699 -4.7,-1.699C-6.567,-1.699 -8.101,-1.115 -9.3,0.051C-10.5,1.219 -11.101,2.751 -11.101,4.65C-11.101,6.551 -10.5,8.084 -9.3,9.251C-8.101,10.418 -6.567,11.001 -4.7,11.001C-2.834,11.001 -1.268,10.4 0,9.201M1.95,-7.899L9.05,-7.899L9.05,17.101L1.95,17.101L1.95,15.201C0.85,16.035 -0.358,16.676 -1.675,17.126C-2.992,17.576 -4.317,17.801 -5.65,17.801C-8.25,17.801 -10.492,17.234 -12.375,16.101C-14.259,14.969 -15.7,13.41 -16.7,11.426C-17.7,9.443 -18.2,7.184 -18.2,4.65C-18.2,2.118 -17.7,-0.156 -16.7,-2.174C-15.7,-4.191 -14.259,-5.766 -12.375,-6.899C-10.492,-8.031 -8.25,-8.6 -5.65,-8.6C-4.284,-8.6 -2.95,-8.365 -1.65,-7.899C-0.351,-7.432 0.85,-6.781 1.95,-5.949L1.95,-7.899Z" style="fill:rgb(31,0,101);fill-rule:nonzero;"/>
            </g>
            <g transform="matrix(1,0,0,1,526.75,404.861)">
                <path d="M0,-0.749C1.266,-1.949 1.899,-3.499 1.899,-5.399C1.899,-7.231 1.266,-8.731 0,-9.899C-1.268,-11.065 -2.834,-11.649 -4.701,-11.649C-6.568,-11.649 -8.093,-11.065 -9.275,-9.899C-10.459,-8.731 -11.051,-7.199 -11.051,-5.3C-11.051,-3.399 -10.459,-1.866 -9.275,-0.699C-8.093,0.468 -6.568,1.051 -4.701,1.051C-2.834,1.051 -1.268,0.45 0,-0.749M1.899,-17.849L9.049,-17.849L9.049,5.901C9.049,8.233 8.441,10.301 7.225,12.101C6.008,13.901 4.332,15.301 2.199,16.301C0.066,17.301 -2.334,17.801 -5,17.801C-7.9,17.801 -10.559,17.242 -12.976,16.126C-15.393,15.009 -17.084,13.567 -18.051,11.801L-11.951,8.251C-11.518,9.117 -10.65,9.833 -9.351,10.401C-8.051,10.968 -6.534,11.251 -4.801,11.251C-2.867,11.251 -1.268,10.751 0,9.751C1.266,8.751 1.899,7.468 1.899,5.901L1.899,5.251C0.799,6.085 -0.393,6.726 -1.676,7.176C-2.959,7.626 -4.284,7.851 -5.65,7.851C-8.25,7.851 -10.492,7.284 -12.375,6.151C-14.26,5.019 -15.701,3.46 -16.701,1.476C-17.701,-0.507 -18.201,-2.766 -18.201,-5.3C-18.201,-7.832 -17.701,-10.106 -16.701,-12.124C-15.701,-14.141 -14.26,-15.716 -12.375,-16.849C-10.492,-17.981 -8.25,-18.55 -5.65,-18.55C-4.318,-18.55 -3,-18.324 -1.701,-17.874C-0.4,-17.425 0.799,-16.782 1.899,-15.949L1.899,-17.849Z" style="fill:rgb(31,0,101);fill-rule:nonzero;"/>
            </g>
            <g transform="matrix(1,0,0,1,0,284.566)">
                <path d="M541.999,102.447L549.148,102.447L549.148,127.447L541.999,127.447L541.999,102.447ZM542.475,97.971C541.725,97.255 541.35,96.28 541.35,95.046C541.35,93.78 541.725,92.78 542.475,92.046C543.225,91.314 544.266,90.947 545.6,90.947C546.898,90.947 547.932,91.314 548.699,92.046C549.465,92.78 549.85,93.78 549.85,95.046C549.85,96.28 549.465,97.255 548.699,97.971C547.932,98.689 546.898,99.046 545.6,99.046C544.266,99.046 543.225,98.689 542.475,97.971" style="fill:rgb(31,0,101);fill-rule:nonzero;"/>
            </g>
            <g transform="matrix(1,0,0,1,562.574,384.113)">
                <path d="M0,21.15C0.25,21.382 0.674,21.5 1.274,21.5C1.707,21.5 2.225,21.449 2.824,21.349L2.824,27.9C1.191,28.132 -0.076,28.25 -0.976,28.25C-3.143,28.25 -4.775,27.674 -5.875,26.525C-6.976,25.375 -7.525,23.349 -7.525,20.449L-7.525,-7.1L-0.375,-7.1L-0.375,20C-0.375,20.533 -0.25,20.917 0,21.15" style="fill:rgb(31,0,101);fill-rule:nonzero;"/>
            </g>
            <g transform="matrix(1,0,0,1,0,284.566)">
                <path d="M570.048,102.447L577.197,102.447L577.197,127.447L570.048,127.447L570.048,102.447ZM570.523,97.971C569.773,97.255 569.398,96.28 569.398,95.046C569.398,93.78 569.773,92.78 570.523,92.046C571.273,91.314 572.314,90.947 573.648,90.947C574.947,90.947 575.98,91.314 576.748,92.046C577.514,92.78 577.898,93.78 577.898,95.046C577.898,96.28 577.514,97.255 576.748,97.971C575.98,98.689 574.947,99.046 573.648,99.046C572.314,99.046 571.273,98.689 570.523,97.971" style="fill:rgb(112,101,221);fill-rule:nonzero;"/>
            </g>
            <g transform="matrix(1,0,0,1,598.348,412.062)">
                <path d="M0,-25.049L8.699,-25.049L-0.301,-12.5L8.699,-0.049L-0.051,0L-4.65,-6.4L-9.25,0L-18,-0.049L-9,-12.5L-18,-25.049L-9.301,-25.049L-4.65,-18.6L0,-25.049Z" style="fill:rgb(112,101,221);fill-rule:nonzero;"/>
            </g>
        </g>
    </g>
    <defs>
        <linearGradient id="_Linear1" x1="0" y1="0" x2="1" y2="0" gradientUnits="userSpaceOnUse" gradientTransform="matrix(-857.526,1.56336e-13,-1.05017e-13,-1276.58,2647.83,2283.15)"><stop offset="0" style="stop-color:rgb(48,180,214);stop-opacity:0.2"/><stop offset="1" style="stop-color:rgb(113,100,221);stop-opacity:0.2"/></linearGradient>
        <linearGradient id="_Linear2" x1="0" y1="0" x2="1" y2="0" gradientUnits="userSpaceOnUse" gradientTransform="matrix(-1002.63,1.22787e-13,-1.22787e-13,-1002.63,2500.57,1864.09)"><stop offset="0" style="stop-color:rgb(48,180,214);stop-opacity:1"/><stop offset="1" style="stop-color:rgb(113,100,221);stop-opacity:1"/></linearGradient>
        <linearGradient id="_Linear4" x1="0" y1="0" x2="1" y2="0" gradientUnits="userSpaceOnUse" gradientTransform="matrix(-846.898,505.325,-505.325,-846.898,3637.95,2431.18)"><stop offset="0" style="stop-color:rgb(79,196,229);stop-opacity:1"/><stop offset="0.33" style="stop-color:rgb(94,185,230);stop-opacity:1"/><stop offset="0.75" style="stop-color:rgb(130,161,231);stop-opacity:1"/><stop offset="1" style="stop-color:rgb(150,135,233);stop-opacity:1"/></linearGradient>
        <linearGradient id="_Linear5" x1="0" y1="0" x2="1" y2="0" gradientUnits="userSpaceOnUse" gradientTransform="matrix(798.918,-276.274,276.274,798.918,2950.48,3120.74)"><stop offset="0" style="stop-color:rgb(89,100,213);stop-opacity:1"/><stop offset="0.45" style="stop-color:rgb(73,119,211);stop-opacity:1"/><stop offset="1" style="stop-color:rgb(48,150,207);stop-opacity:1"/></linearGradient>
    </defs>
</svg>
