<?xml version="1.0" encoding="UTF-8" standalone="no"?>
<!DOCTYPE svg PUBLIC "-//W3C//DTD SVG 1.1//EN" "http://www.w3.org/Graphics/SVG/1.1/DTD/svg11.dtd">
<svg width="100%" height="100%" viewBox="0 0 9584 9584" version="1.1" xmlns="http://www.w3.org/2000/svg" xmlns:xlink="http://www.w3.org/1999/xlink" xml:space="preserve" xmlns:serif="http://www.serif.com/" style="fill-rule:evenodd;clip-rule:evenodd;stroke-linejoin:round;stroke-miterlimit:2;">
    <g transform="matrix(9.05105,0,0,9.05105,-24800.8,-20648.2)">
        <g transform="matrix(1.1155,0,0,0.749322,814.441,1425.74)">
            <ellipse cx="2219.06" cy="2283.16" rx="428.763" ry="79.063" style="fill:url(#_Linear1);"/>
        </g>
        <g transform="matrix(1,0,0,1,1267.53,1017.93)">
            <path d="M1755.86,1825.9C1755.86,1825.9 1657.47,1974.02 1550.37,1935.73C1516.18,1923.5 1495.9,1880.83 1498.1,1813.22C1498.1,1813.22 1596.94,1961.85 1753.5,1777.53C1772.8,1754.82 1811.39,1707.9 1847.05,1683.03C1897.31,1647.98 1948.64,1628.39 1959.44,1623.12C1975.77,1634.39 1996.8,1646.84 2031.99,1660.28C2096.54,1684.93 2281.94,1699.02 2409.82,1766.53C2435.72,1780.2 2456.4,1791.98 2479.47,1808.67L2449.27,1821.33C2449.27,1821.33 2287.15,1753.87 2119.97,1775.97C2053.45,1784.77 1986.13,1813.03 1956.28,1835.65C1918.9,1863.97 1900.37,1907.92 1852.3,1960.31C1794.32,2023.5 1748.73,2020.91 1692.87,2053.07C1663.64,2069.9 1645.48,2112.07 1645.48,2112.07L1605.91,2113.62L1658.6,2002.57C1721.43,1982.58 1759.36,1923.46 1759.36,1854.04C1759.36,1846.23 1755.86,1825.9 1755.86,1825.9ZM2062.96,1584.82C2081.01,1605.72 2130.66,1640.55 2283.56,1676.33C2280.53,1690.81 2286.54,1701.19 2297.79,1709.92C2275.08,1704.06 2194.1,1683.03 2140.27,1667.57C2091.63,1653.59 2041.2,1636.38 2013.33,1599.7C2029.75,1594.05 2046.25,1589.22 2062.96,1584.82ZM2164.45,1558.52C2180.97,1580.66 2218.75,1618.32 2295.15,1651.95C2292.14,1655.59 2289.46,1659.98 2287.19,1665.27C2259.53,1656.73 2129.84,1616.38 2105.29,1572.93C2112.29,1571.34 2119.34,1569.77 2126.45,1568.19C2141.23,1564.92 2153.73,1561.73 2164.45,1558.52ZM2198.49,1546.3C2245.47,1523.25 2246.67,1479.08 2306.58,1428.12C2306.58,1428.12 2341.75,1402.79 2378.32,1408.55C2378.32,1408.55 2348.47,1420.91 2341.91,1466.44C2341.91,1466.44 2393.48,1466.4 2408.99,1484.17C2433.7,1512.49 2420,1518.9 2452.86,1526.21C2485.72,1533.52 2506.01,1537.71 2506.01,1537.71C2506.01,1537.71 2488.24,1596.68 2427.82,1593.31C2408.55,1592.23 2386.15,1586.63 2364.87,1592.86C2335.97,1601.31 2311.75,1625.21 2301.66,1642.9C2275.94,1628.34 2226.95,1595.97 2198.49,1546.3Z" style="fill:url(#_Linear2);"/>
            <clipPath id="_clip3">
                <path d="M1755.86,1825.9C1755.86,1825.9 1657.47,1974.02 1550.37,1935.73C1516.18,1923.5 1495.9,1880.83 1498.1,1813.22C1498.1,1813.22 1596.94,1961.85 1753.5,1777.53C1772.8,1754.82 1811.39,1707.9 1847.05,1683.03C1897.31,1647.98 1948.64,1628.39 1959.44,1623.12C1975.77,1634.39 1996.8,1646.84 2031.99,1660.28C2096.54,1684.93 2281.94,1699.02 2409.82,1766.53C2435.72,1780.2 2456.4,1791.98 2479.47,1808.67L2449.27,1821.33C2449.27,1821.33 2287.15,1753.87 2119.97,1775.97C2053.45,1784.77 1986.13,1813.03 1956.28,1835.65C1918.9,1863.97 1900.37,1907.92 1852.3,1960.31C1794.32,2023.5 1748.73,2020.91 1692.87,2053.07C1663.64,2069.9 1645.48,2112.07 1645.48,2112.07L1605.91,2113.62L1658.6,2002.57C1721.43,1982.58 1759.36,1923.46 1759.36,1854.04C1759.36,1846.23 1755.86,1825.9 1755.86,1825.9ZM2062.96,1584.82C2081.01,1605.72 2130.66,1640.55 2283.56,1676.33C2280.53,1690.81 2286.54,1701.19 2297.79,1709.92C2275.08,1704.06 2194.1,1683.03 2140.27,1667.57C2091.63,1653.59 2041.2,1636.38 2013.33,1599.7C2029.75,1594.05 2046.25,1589.22 2062.96,1584.82ZM2164.45,1558.52C2180.97,1580.66 2218.75,1618.32 2295.15,1651.95C2292.14,1655.59 2289.46,1659.98 2287.19,1665.27C2259.53,1656.73 2129.84,1616.38 2105.29,1572.93C2112.29,1571.34 2119.34,1569.77 2126.45,1568.19C2141.23,1564.92 2153.73,1561.73 2164.45,1558.52ZM2198.49,1546.3C2245.47,1523.25 2246.67,1479.08 2306.58,1428.12C2306.58,1428.12 2341.75,1402.79 2378.32,1408.55C2378.32,1408.55 2348.47,1420.91 2341.91,1466.44C2341.91,1466.44 2393.48,1466.4 2408.99,1484.17C2433.7,1512.49 2420,1518.9 2452.86,1526.21C2485.72,1533.52 2506.01,1537.71 2506.01,1537.71C2506.01,1537.71 2488.24,1596.68 2427.82,1593.31C2408.55,1592.23 2386.15,1586.63 2364.87,1592.86C2335.97,1601.31 2311.75,1625.21 2301.66,1642.9C2275.94,1628.34 2226.95,1595.97 2198.49,1546.3Z"/>
            </clipPath>
            <g clip-path="url(#_clip3)">
                <g transform="matrix(1,0,0,1,-1267.53,-1017.93)">
                    <path d="M3662.33,2424.17C3662.33,2424.17 3589.73,2428.84 3550.63,2508.14C3511.53,2587.44 3468.96,2591.18 3319.52,2642.85C3170.08,2694.53 3096.99,2770.78 3068.73,2870.02C3040.48,2969.25 2999.5,3020.18 2903.58,3027.7C2807.67,3035.22 2577.86,2963.77 2719.93,2760.86C2861.99,2557.95 3548.69,2362.12 3548.69,2362.12L3662.33,2424.17Z" style="fill:url(#_Linear4);"/>
                </g>
                <g transform="matrix(1,0,0,1,-1289.67,-1030.33)">
                    <path d="M2995.7,3061.06C3036.77,3035.46 3100.11,3027.88 3172.87,2915.1C3190.44,2887.88 3219.58,2850.09 3248.26,2830.74C3284.14,2806.54 3341.67,2772.79 3436.74,2767.72C3537.11,2762.37 3671.42,2802.33 3759.39,2856.37L2934.47,3145.31C2934.47,3145.31 2944.95,3092.68 2995.7,3061.06Z" style="fill:url(#_Linear5);"/>
                </g>
            </g>
        </g>
    </g>
    <defs>
        <linearGradient id="_Linear1" x1="0" y1="0" x2="1" y2="0" gradientUnits="userSpaceOnUse" gradientTransform="matrix(-857.526,1.56336e-13,-1.05017e-13,-1276.58,2647.83,2283.15)"><stop offset="0" style="stop-color:rgb(48,180,214);stop-opacity:0.2"/><stop offset="1" style="stop-color:rgb(113,100,221);stop-opacity:0.2"/></linearGradient>
        <linearGradient id="_Linear2" x1="0" y1="0" x2="1" y2="0" gradientUnits="userSpaceOnUse" gradientTransform="matrix(-1002.63,1.22787e-13,-1.22787e-13,-1002.63,2500.57,1864.09)"><stop offset="0" style="stop-color:rgb(48,180,214);stop-opacity:1"/><stop offset="1" style="stop-color:rgb(113,100,221);stop-opacity:1"/></linearGradient>
        <linearGradient id="_Linear4" x1="0" y1="0" x2="1" y2="0" gradientUnits="userSpaceOnUse" gradientTransform="matrix(-846.898,505.325,-505.325,-846.898,3637.95,2431.18)"><stop offset="0" style="stop-color:rgb(79,196,229);stop-opacity:1"/><stop offset="0.33" style="stop-color:rgb(94,185,230);stop-opacity:1"/><stop offset="0.75" style="stop-color:rgb(130,161,231);stop-opacity:1"/><stop offset="1" style="stop-color:rgb(150,135,233);stop-opacity:1"/></linearGradient>
        <linearGradient id="_Linear5" x1="0" y1="0" x2="1" y2="0" gradientUnits="userSpaceOnUse" gradientTransform="matrix(798.918,-276.274,276.274,798.918,2950.48,3120.74)"><stop offset="0" style="stop-color:rgb(89,100,213);stop-opacity:1"/><stop offset="0.45" style="stop-color:rgb(73,119,211);stop-opacity:1"/><stop offset="1" style="stop-color:rgb(48,150,207);stop-opacity:1"/></linearGradient>
    </defs>
</svg>
